# xmcd CD database file
#
# Track frame offsets:
#	150
#	25228
#	40534
#	64747
#	82035
#	101177
#	123814
#	138621
#	153216
#	170043
#	178998
#	196095
#
# Disc length: 2754 seconds
#
# Revision: 0
# Processed by: cddbd v1.5.2PL0 Copyright (c) Steve Scherf et al.
# Submitted via: CDex 1.51
#
DISCID=a00ac00c
DTITLE=Parry Ray - My Life In Pieces
DYEAR=2009
DGENRE=Jazz
TTITLE0=Small Day Tomorrow
TTITLE1=Orange Coloured Sky
TTITLE2=The Nearness Of You
TTITLE3=Don`t Tell Me
TTITLE4=You Don`t Know What Love Is
TTITLE5=More Than You Know
TTITLE6=On A Clear Day
TTITLE7=Wouldn`t It Be Loverly?
TTITLE8=How Can This Be Love?
TTITLE9=30 Seconds
TTITLE10=Every Breath You Take
TTITLE11=Do I Love You?
EXTD=YEAR: 2009
EXTT0=
EXTT1=
EXTT2=
EXTT3=
EXTT4=
EXTT5=
EXTT6=
EXTT7=
EXTT8=
EXTT9=
EXTT10=
EXTT11=
PLAYORDER=
